<svg width="430" height="796" viewBox="0 0 430 796" fill="none" xmlns="http://www.w3.org/2000/svg">
<circle cx="405" cy="224" r="123" fill="url(#paint0_linear_27_377)" fill-opacity="0.34"/>
<ellipse cx="391" cy="270.5" rx="123" ry="135.5" fill="#0062BD"/>
<rect x="154.159" width="95" height="389" rx="47.5" transform="rotate(50.2683 154.159 0)" fill="#0059AB"/>
<rect x="497.159" y="474" width="95" height="389" rx="47.5" transform="rotate(50.2683 497.159 474)" fill="#0059AB"/>
<path fill-rule="evenodd" clip-rule="evenodd" d="M100.712 658.495C106.068 644.696 109.006 629.691 109.006 614C109.006 546.069 53.9373 491 -13.9938 491C-74.3536 491 -124.559 534.478 -135 591.824C-116.342 543.156 -72.6119 509 -21.6403 509C46.2907 509 101.36 569.665 101.36 644.5C101.36 649.225 101.14 653.894 100.712 658.495Z" fill="url(#paint1_linear_27_377)" fill-opacity="0.34"/>
<defs>
<linearGradient id="paint0_linear_27_377" x1="405" y1="101" x2="405" y2="236" gradientUnits="userSpaceOnUse">
<stop stop-color="white"/>
<stop offset="1" stop-color="white" stop-opacity="0"/>
</linearGradient>
<linearGradient id="paint1_linear_27_377" x1="-13.9938" y1="491" x2="-13.9938" y2="751" gradientUnits="userSpaceOnUse">
<stop stop-color="white"/>
<stop offset="1" stop-color="white" stop-opacity="0"/>
</linearGradient>
</defs>
</svg>
